<?xml version="1.0" standalone="no"?>
<!DOCTYPE svg PUBLIC "-//W3C//DTD SVG 20010904//EN"
 "http://www.w3.org/TR/2001/REC-SVG-20010904/DTD/svg10.dtd">
<svg version="1.0" xmlns="http://www.w3.org/2000/svg"
 width="796.000000pt" height="796.000000pt" viewBox="0 0 796.000000 796.000000"
 preserveAspectRatio="xMidYMid meet">
<metadata>
Created by potrace 1.11, written by Peter Selinger 2001-2013
</metadata>
<g transform="translate(0.000000,796.000000) scale(0.100000,-0.100000)"
fill="#000000" stroke="none">
<path d="M3939 7918 c-19 -23 -35 -45 -37 -50 -2 -4 -10 -8 -18 -8 -8 0 -14
-4 -14 -9 0 -9 -81 -95 -90 -96 -3 0 -4 -3 -2 -7 1 -5 -3 -8 -8 -8 -6 0 -24
-13 -40 -30 -16 -16 -34 -30 -40 -30 -6 0 -9 -4 -6 -9 3 -4 -6 -13 -19 -19
-14 -7 -25 -16 -25 -22 0 -5 -6 -10 -14 -10 -8 0 -17 -7 -20 -16 -4 -9 -9 -14
-12 -11 -3 3 -17 -6 -30 -20 -12 -13 -28 -22 -33 -18 -6 3 -11 -1 -11 -9 0 -9
-6 -16 -13 -16 -8 0 -22 -9 -32 -20 -10 -11 -21 -17 -25 -15 -4 3 -10 -1 -13
-9 -3 -8 -24 -22 -46 -32 -22 -9 -38 -21 -35 -26 3 -4 -1 -8 -10 -8 -8 0 -28
-12 -45 -26 -17 -14 -31 -22 -31 -18 0 4 -9 -1 -20 -11 -11 -10 -20 -14 -20
-9 0 5 -4 4 -8 -2 -4 -6 -36 -26 -72 -45 -36 -19 -67 -37 -68 -42 -2 -4 -8 -5
-13 -1 -5 3 -9 0 -9 -5 0 -6 -3 -10 -7 -9 -5 2 -37 -11 -73 -29 -108 -52 -184
-86 -197 -86 -7 0 -13 -4 -13 -9 0 -4 -12 -8 -26 -8 -16 0 -23 -4 -18 -12 4
-6 3 -8 -3 -5 -6 4 -25 0 -42 -9 -17 -8 -35 -13 -41 -9 -5 3 -10 2 -10 -3 0
-8 -11 -13 -62 -27 -5 -2 -10 -4 -13 -5 -3 -1 -8 -3 -12 -4 -5 -1 -47 -15 -95
-30 -49 -15 -96 -29 -105 -31 -10 -2 -18 -4 -18 -5 0 -2 -33 -10 -60 -15 -11
-2 -33 -8 -49 -14 -16 -7 -31 -9 -33 -7 -3 3 -16 1 -29 -4 -29 -12 -85 -24
-149 -33 -11 -1 -25 -6 -31 -9 -5 -4 -19 -5 -30 -4 -10 2 -31 -1 -47 -5 -15
-4 -50 -11 -79 -14 -28 -4 -60 -9 -72 -11 -26 -5 -125 -15 -191 -19 -27 -1
-50 -4 -50 -5 0 -2 -66 -7 -215 -15 -183 -10 -593 -12 -612 -3 -9 5 -19 4 -23
-2 -4 -6 -15 -6 -30 0 -18 7 -25 6 -25 -3 0 -7 -3 -8 -8 -2 -4 6 -46 11 -94
13 l-87 3 6 -128 c3 -70 6 -163 7 -205 0 -43 3 -78 6 -78 3 0 5 -26 4 -58 0
-31 3 -67 8 -79 4 -13 3 -25 -3 -28 -5 -4 -7 -11 -3 -16 7 -12 11 -47 19 -174
3 -55 8 -120 11 -145 3 -25 7 -72 9 -105 6 -79 12 -141 31 -320 4 -38 7 -80 8
-92 0 -13 2 -23 5 -23 4 0 6 -17 7 -38 1 -50 13 -142 20 -153 3 -5 0 -9 -7 -9
-8 0 -8 -4 1 -15 7 -8 10 -21 7 -29 -3 -8 -3 -17 1 -20 3 -4 7 -26 9 -49 1
-23 4 -53 7 -67 6 -37 18 -120 22 -155 1 -16 3 -30 4 -30 1 0 3 -9 4 -20 2
-11 7 -45 11 -75 4 -30 9 -64 11 -75 1 -11 3 -20 4 -20 1 0 3 -15 6 -34 2 -19
7 -46 10 -60 3 -14 7 -39 9 -56 7 -51 14 -89 20 -115 3 -14 8 -36 10 -50 2
-14 7 -41 11 -60 3 -19 7 -42 9 -50 8 -56 19 -97 29 -109 9 -12 8 -13 -4 -6
-12 7 -13 6 -4 -6 6 -8 10 -22 9 -31 -2 -10 0 -18 4 -18 4 0 7 -8 8 -17 2 -26
20 -118 23 -118 2 0 3 -8 14 -60 3 -16 8 -43 12 -60 3 -16 8 -37 11 -45 7 -18
10 -27 16 -61 3 -15 17 -71 32 -125 15 -55 28 -103 30 -109 1 -5 4 -17 7 -25
3 -8 11 -35 18 -60 7 -25 15 -52 18 -60 3 -8 7 -26 9 -40 2 -13 8 -29 12 -35
6 -8 41 -110 47 -137 1 -5 2 -9 4 -10 1 -2 3 -10 5 -18 5 -22 74 -202 85 -222
6 -10 10 -25 10 -33 0 -8 5 -15 11 -15 6 0 9 -7 5 -15 -3 -8 0 -15 6 -15 6 0
9 -3 5 -6 -3 -4 5 -26 18 -50 14 -24 25 -46 25 -49 0 -9 55 -121 86 -177 18
-31 30 -59 26 -62 -3 -3 0 -6 6 -6 6 0 14 -10 18 -22 4 -13 14 -29 23 -36 12
-10 12 -12 1 -6 -15 8 15 -34 35 -48 5 -4 7 -10 3 -13 -3 -4 2 -15 13 -26 10
-10 19 -26 19 -34 0 -8 5 -15 10 -15 6 0 10 -7 10 -15 0 -8 5 -15 10 -15 6 0
10 -7 10 -15 0 -8 5 -15 10 -15 6 0 10 -6 10 -13 0 -7 9 -23 20 -35 11 -12 20
-26 20 -32 0 -5 5 -10 12 -10 6 0 9 -3 5 -6 -3 -3 5 -17 19 -31 13 -13 24 -30
24 -37 0 -8 7 -17 16 -20 8 -3 13 -10 10 -15 -4 -5 -2 -11 3 -13 5 -1 20 -21
35 -42 14 -21 26 -35 26 -30 1 9 15 -12 22 -31 1 -5 13 -19 26 -32 13 -13 20
-28 17 -33 -4 -6 -3 -9 2 -8 13 4 74 -68 65 -77 -4 -5 -1 -5 6 -1 6 4 12 3 12
-2 0 -5 14 -23 30 -40 17 -18 30 -34 30 -37 0 -3 20 -25 44 -50 25 -25 43 -45
40 -45 -3 0 75 -81 173 -180 97 -99 183 -180 191 -180 7 0 11 -4 8 -9 -3 -5 1
-14 9 -21 8 -7 15 -9 15 -4 1 5 7 -2 15 -16 8 -14 14 -21 15 -16 0 4 13 -6 29
-23 15 -16 31 -27 35 -24 3 3 6 -1 6 -10 0 -9 4 -17 8 -17 5 0 18 -8 29 -18
109 -94 142 -121 198 -164 36 -28 65 -55 65 -60 0 -5 4 -7 9 -4 11 7 62 -40
53 -50 -4 -4 -2 -4 4 -1 11 6 65 -28 72 -45 2 -5 10 -8 18 -8 8 0 14 -4 14 -8
0 -5 18 -18 40 -31 22 -12 40 -26 40 -32 0 -5 6 -9 14 -9 8 0 16 -3 18 -7 1
-5 17 -16 33 -25 17 -10 29 -23 27 -30 -2 -7 0 -10 3 -6 11 10 67 -21 60 -33
-4 -5 -3 -8 2 -7 14 4 53 -13 53 -23 0 -5 7 -9 15 -9 8 0 15 -5 15 -10 0 -6 3
-9 8 -8 4 2 22 -8 40 -22 19 -14 36 -24 38 -22 2 1 14 -7 26 -18 12 -11 28
-20 35 -20 7 0 13 -4 13 -10 0 -5 7 -10 15 -10 8 0 15 -5 15 -11 0 -5 4 -8 9
-5 5 3 14 -1 21 -9 7 -8 19 -15 26 -15 8 0 14 -4 14 -10 0 -5 6 -10 13 -10 6
0 37 -16 67 -34 30 -19 58 -32 62 -30 4 3 8 0 8 -5 0 -6 7 -11 15 -11 8 0 15
-4 15 -8 0 -4 16 -14 35 -21 19 -7 35 -17 35 -22 0 -6 4 -7 10 -4 5 3 10 1 10
-5 0 -7 7 -10 15 -6 8 3 15 1 15 -4 0 -6 7 -10 15 -10 8 0 15 -5 15 -10 0 -6
3 -9 8 -9 14 3 92 -34 92 -44 0 -5 7 -7 15 -3 8 3 15 2 15 -3 0 -14 43 -21 57
-9 7 6 13 7 13 3 0 -5 8 -1 18 8 10 10 22 14 25 10 4 -3 7 -1 7 5 0 7 3 11 8
10 10 -2 124 54 140 69 8 7 18 11 23 8 5 -4 9 -2 9 3 0 9 37 25 53 23 4 -1 7
3 7 9 0 5 6 10 14 10 7 0 19 7 26 15 7 8 16 12 21 9 5 -3 9 -2 9 3 0 4 13 14
30 21 16 7 45 24 65 37 19 14 35 22 35 18 0 -3 8 1 18 9 23 21 152 98 163 98
5 0 9 5 9 10 0 6 6 10 14 10 8 0 16 3 18 8 4 10 116 82 128 82 5 0 10 5 10 10
0 6 8 14 18 17 9 4 22 11 27 15 44 36 148 108 155 108 6 0 10 5 10 10 0 6 7
10 15 10 8 0 15 3 15 8 0 4 16 18 35 31 19 13 43 31 54 40 11 9 35 27 53 41
18 14 40 33 50 43 10 9 18 15 18 12 0 -3 14 8 30 25 17 17 30 28 30 25 0 -6
52 38 81 69 11 11 19 17 19 14 0 -6 17 9 134 119 31 29 56 50 56 48 0 -2 61
57 135 131 74 75 135 139 135 145 0 5 7 9 15 9 8 0 15 3 15 8 0 4 22 31 49 59
27 29 68 76 92 105 24 28 49 56 54 62 6 6 27 32 48 58 21 26 45 54 53 63 9 8
12 15 8 15 -4 0 3 8 14 19 12 10 22 23 22 30 0 6 4 11 8 11 4 0 21 20 36 45
16 25 33 45 37 45 5 0 9 4 9 9 0 6 27 47 60 93 32 46 65 94 72 108 7 14 16 27
19 30 3 3 19 28 34 55 16 28 32 52 35 55 3 3 11 16 18 30 7 14 20 39 30 55 33
54 88 159 102 195 7 19 20 42 27 52 8 9 16 22 17 30 3 15 15 44 44 108 11 25
28 68 38 95 10 28 23 53 28 57 6 4 7 8 2 8 -5 0 -3 7 4 15 7 8 10 15 7 15 -3
0 5 27 18 59 13 33 20 62 17 65 -3 3 1 6 8 6 7 0 11 3 8 6 -4 3 4 36 17 72 13
37 31 94 41 127 9 33 20 65 24 70 4 6 6 18 5 28 -2 9 2 17 8 17 5 0 8 3 5 6
-4 3 -2 20 4 37 27 89 39 134 42 152 2 11 6 27 9 35 4 8 9 26 11 40 3 14 15
65 26 113 11 48 22 98 24 110 3 12 5 23 7 25 2 2 3 5 13 57 4 22 10 51 13 65
3 14 6 33 7 43 0 9 3 17 6 17 3 0 6 8 6 18 1 16 3 29 20 115 4 17 8 43 10 57
1 14 3 25 4 25 2 0 4 14 5 30 2 17 4 31 5 33 1 1 4 7 5 12 1 6 3 11 4 13 1 1
4 18 6 37 3 19 7 46 10 60 2 13 7 42 11 65 7 45 12 70 14 70 1 0 3 18 5 40 4
52 14 106 22 118 4 6 1 7 -6 2 -10 -6 -11 -3 -3 12 6 11 13 44 16 74 3 30 8
65 11 79 3 14 7 48 10 75 2 28 6 61 9 75 11 58 23 155 31 260 2 19 5 51 8 70
3 19 8 64 11 100 4 36 9 88 13 115 3 28 7 68 8 90 2 22 4 40 5 40 1 0 3 32 5
70 1 39 3 70 5 70 2 0 7 62 24 332 1 12 5 25 8 29 4 3 3 16 -2 29 -5 13 -7 25
-4 28 6 6 12 104 19 282 2 72 5 131 6 133 6 9 4 29 -5 41 -8 11 -8 13 1 8 7
-5 9 0 6 13 -3 11 -9 18 -13 15 -3 -2 -58 -6 -121 -9 -63 -3 -116 -6 -119 -7
-14 -4 -580 -3 -580 1 0 3 -39 6 -88 8 -48 2 -106 4 -129 5 -24 1 -43 4 -43 7
0 3 -19 5 -43 6 -23 1 -67 4 -97 7 -30 4 -77 9 -105 12 -27 3 -61 8 -75 11
-14 3 -43 8 -65 10 -43 5 -80 12 -80 14 0 1 -11 3 -25 5 -14 2 -38 6 -55 10
-29 6 -79 15 -100 19 -5 1 -16 5 -22 9 -7 5 -13 6 -13 3 0 -2 -15 0 -32 5 -32
10 -70 18 -95 21 -7 1 -13 4 -13 7 0 4 -10 7 -23 9 -23 1 -265 79 -322 103
-16 7 -32 13 -35 13 -24 5 -177 72 -182 80 -4 6 -8 7 -8 3 0 -4 -10 -2 -22 5
-13 7 -26 11 -30 10 -3 -1 -12 5 -18 13 -7 8 -21 15 -31 15 -11 0 -19 5 -19
10 0 6 -8 10 -17 10 -10 0 -27 7 -37 15 -10 8 -23 12 -27 9 -5 -3 -9 3 -9 12
0 10 -3 14 -6 11 -7 -7 -107 43 -112 56 -2 4 -8 7 -14 7 -6 0 -26 11 -44 25
-18 14 -36 25 -39 25 -4 0 -26 14 -50 30 -24 17 -48 30 -53 30 -6 0 -12 3 -14
8 -6 14 -76 61 -82 55 -3 -4 -6 1 -6 11 0 9 -4 15 -9 12 -5 -4 -11 -3 -13 2
-1 4 -24 23 -50 42 -27 18 -48 37 -48 42 0 4 -6 8 -13 8 -7 0 -19 9 -27 20 -8
11 -20 20 -27 20 -6 0 -15 9 -18 20 -3 11 -11 20 -17 20 -13 0 -198 184 -198
197 0 4 -8 13 -19 20 -15 10 -23 6 -52 -29z m86 -623 c19 -19 35 -31 35 -27 1
4 10 -4 20 -17 11 -13 20 -20 20 -17 0 6 11 -2 44 -31 8 -7 16 -9 20 -6 3 4 6
-1 6 -10 0 -9 7 -17 15 -17 8 0 15 -4 15 -10 0 -5 6 -10 14 -10 7 0 25 -11 40
-25 15 -14 33 -25 40 -25 8 0 16 -7 20 -15 3 -8 12 -15 21 -15 8 0 15 -4 15
-9 0 -5 8 -11 18 -14 20 -7 75 -39 82 -49 3 -4 22 -14 42 -22 20 -9 38 -20 40
-26 2 -6 11 -12 20 -13 9 -2 22 -7 29 -13 26 -20 220 -114 234 -114 8 0 15 -4
15 -9 0 -5 17 -15 38 -22 20 -6 42 -15 48 -20 6 -5 14 -6 17 -2 4 3 7 1 7 -5
0 -6 16 -14 35 -18 19 -3 35 -10 35 -16 0 -5 5 -6 10 -3 6 3 10 2 10 -4 0 -6
7 -8 15 -5 8 4 15 1 15 -6 0 -7 7 -10 15 -7 8 4 17 2 20 -3 3 -4 31 -16 63
-26 31 -9 62 -20 67 -24 6 -4 33 -13 60 -20 28 -7 55 -17 61 -21 6 -5 14 -6
17 -2 4 3 7 2 7 -4 0 -6 9 -9 20 -6 11 3 20 1 20 -4 0 -5 8 -10 18 -11 21 -2
42 -7 62 -15 8 -3 29 -9 45 -13 17 -4 35 -8 40 -10 6 -1 21 -5 35 -7 14 -3 27
-7 30 -8 3 -1 10 -3 15 -4 6 -1 21 -5 35 -9 14 -4 36 -8 50 -10 14 -1 32 -6
40 -11 7 -5 30 -10 49 -11 20 -1 50 -5 66 -9 58 -11 100 -17 128 -19 15 0 27
-3 27 -6 0 -3 17 -6 38 -7 20 -1 51 -4 67 -8 17 -3 53 -8 80 -11 102 -10 113
-11 124 -18 6 -4 11 -2 11 4 0 6 5 8 10 5 19 -12 225 -24 490 -30 102 -2 190
-4 197 -4 8 -1 10 -20 6 -68 -3 -38 -6 -96 -7 -130 0 -35 -3 -63 -6 -63 -5 0
-8 -39 -11 -155 0 -27 -4 -54 -7 -59 -3 -5 -6 -36 -8 -68 -1 -33 -5 -83 -8
-111 -8 -66 -17 -151 -22 -202 -10 -103 -20 -187 -29 -250 -8 -53 -16 -123
-18 -162 -1 -18 -4 -33 -7 -33 -3 0 -5 -20 -5 -45 0 -25 -2 -45 -5 -45 -5 0
-11 -45 -14 -102 0 -16 -4 -28 -8 -28 -3 0 -5 -8 -4 -17 2 -9 -1 -35 -5 -57
-4 -23 -10 -59 -13 -81 -4 -23 -9 -52 -12 -65 -3 -14 -7 -41 -9 -60 -2 -19 -4
-35 -5 -35 -2 0 -4 -11 -5 -25 -2 -14 -5 -34 -8 -45 -4 -20 -15 -76 -23 -125
-3 -14 -14 -70 -26 -125 -11 -55 -20 -108 -20 -117 0 -10 -4 -18 -9 -18 -6 0
-8 -4 -5 -8 3 -5 -2 -37 -10 -73 -9 -35 -17 -73 -20 -84 -2 -11 -6 -32 -10
-47 -3 -15 -5 -30 -5 -33 0 -2 -6 -23 -15 -46 -8 -23 -12 -44 -9 -47 3 -3 0
-11 -7 -19 -6 -7 -8 -16 -5 -20 4 -3 3 -11 -2 -17 -6 -6 -12 -25 -15 -41 -2
-17 -5 -31 -5 -32 -1 -2 -1 -6 -2 -10 0 -5 -5 -14 -11 -20 -6 -7 -8 -13 -4
-13 3 0 1 -12 -5 -27 -6 -16 -12 -37 -14 -48 -2 -11 -15 -56 -30 -100 -14 -44
-28 -89 -30 -100 -3 -11 -9 -21 -14 -23 -5 -2 -7 -12 -4 -22 3 -12 0 -20 -6
-20 -7 0 -9 -5 -6 -10 4 -6 2 -16 -3 -23 -5 -7 -13 -27 -17 -44 -3 -18 -11
-33 -16 -33 -6 0 -8 -4 -5 -9 3 -5 -1 -26 -10 -47 -9 -22 -21 -50 -27 -64 -6
-14 -11 -27 -12 -30 0 -3 -6 -15 -13 -26 -6 -12 -9 -24 -6 -26 2 -3 -2 -11
-11 -18 -8 -7 -15 -18 -15 -24 0 -7 -10 -32 -22 -57 -12 -24 -22 -46 -23 -49
-1 -14 -69 -136 -79 -142 -6 -5 -7 -8 -1 -8 6 0 3 -6 -5 -13 -8 -7 -16 -18
-18 -25 -1 -7 -13 -31 -27 -52 -14 -22 -25 -44 -25 -50 0 -5 -4 -10 -8 -10 -5
0 -19 -20 -32 -45 -12 -24 -27 -42 -33 -38 -6 3 -7 1 -3 -5 3 -6 -1 -17 -9
-25 -8 -9 -15 -20 -15 -26 0 -6 -4 -11 -10 -11 -5 0 -10 -7 -10 -15 0 -8 -4
-15 -10 -15 -5 0 -10 -7 -10 -15 0 -7 -6 -18 -14 -22 -8 -4 -16 -15 -18 -23
-4 -20 -22 -39 -30 -33 -5 2 -8 -2 -8 -10 0 -8 -8 -23 -17 -35 -10 -11 -27
-32 -37 -47 -11 -14 -27 -35 -35 -45 -9 -10 -25 -31 -36 -46 -11 -15 -30 -37
-41 -49 -12 -12 -27 -32 -33 -44 -7 -13 -19 -20 -26 -17 -9 3 -12 0 -9 -8 3
-8 -5 -21 -18 -30 -13 -9 -23 -20 -23 -24 0 -4 -4 -6 -8 -4 -5 1 -6 -1 -3 -6
6 -11 -30 -43 -39 -34 -3 4 -3 -2 1 -12 5 -14 4 -17 -4 -12 -7 4 -12 3 -12 -3
0 -23 -434 -439 -452 -434 -4 2 -8 -4 -8 -12 0 -8 -4 -15 -9 -15 -5 0 -28 -18
-50 -41 -23 -22 -46 -37 -51 -34 -6 3 -10 -1 -10 -9 0 -9 -3 -16 -7 -16 -9 0
-56 -38 -88 -70 -12 -11 -26 -20 -32 -20 -6 0 -18 -10 -27 -23 -9 -12 -14 -15
-11 -7 5 12 4 12 -7 -1 -7 -8 -30 -27 -50 -41 -21 -13 -35 -28 -31 -31 3 -4
-1 -7 -10 -7 -10 0 -25 -9 -34 -20 -10 -11 -23 -20 -30 -20 -7 0 -13 -4 -13
-9 0 -5 -11 -12 -25 -15 -14 -4 -23 -11 -20 -16 3 -5 -5 -12 -19 -16 -13 -3
-27 -12 -30 -21 -3 -8 -10 -11 -16 -8 -6 3 -13 -1 -16 -9 -3 -9 -12 -16 -20
-16 -8 0 -14 -5 -14 -11 0 -5 -4 -7 -10 -4 -5 3 -10 2 -10 -2 0 -5 -8 -13 -19
-18 -36 -19 -106 -68 -113 -79 -4 -6 -8 -7 -8 -2 0 5 -9 1 -20 -9 -11 -10 -20
-14 -20 -9 0 5 -6 2 -13 -6 -7 -8 -25 -22 -42 -30 -16 -8 -39 -23 -49 -32 -10
-10 -22 -15 -26 -13 -4 2 -16 -5 -28 -15 -12 -11 -25 -20 -30 -20 -4 0 -29
-13 -54 -29 -25 -16 -49 -27 -52 -24 -3 4 -6 1 -6 -6 0 -7 -4 -9 -10 -6 -5 3
-10 2 -10 -3 0 -9 -37 -25 -52 -23 -5 1 -8 -3 -8 -8 0 -14 -40 -8 -70 9 -14 8
-34 20 -45 26 -11 7 -45 24 -75 40 -30 15 -57 30 -60 34 -3 4 -20 13 -37 21
-18 8 -33 17 -33 21 0 5 -6 8 -13 8 -7 0 -22 8 -33 18 -11 9 -26 18 -33 20 -7
1 -22 11 -33 22 -12 11 -25 17 -30 14 -4 -3 -8 -1 -8 4 0 5 -17 17 -37 28 -21
10 -46 27 -55 37 -9 10 -20 19 -25 19 -16 3 -73 40 -73 49 0 5 -3 8 -7 7 -11
-3 -93 52 -115 76 -10 10 -18 15 -18 11 0 -4 -9 2 -19 14 -11 12 -23 22 -28
23 -9 0 -55 33 -84 61 -11 9 -22 17 -27 17 -4 0 -18 10 -32 23 -14 12 -43 36
-65 52 -22 17 -44 35 -50 41 -5 5 -32 28 -60 49 -53 41 -106 88 -162 143 -18
18 -33 30 -33 27 0 -3 -22 17 -49 44 -27 27 -52 47 -55 44 -3 -4 -6 0 -6 8 0
13 -58 69 -72 69 -5 0 -8 7 -8 15 0 8 -8 15 -17 15 -9 0 -14 2 -11 5 7 8 -47
65 -61 65 -6 0 -11 5 -11 11 0 5 -19 30 -42 54 -71 71 -93 98 -91 107 2 4 -3
8 -10 8 -14 0 -43 40 -38 55 1 5 0 7 -4 3 -7 -7 -35 14 -35 26 0 3 -16 22 -35
43 -19 21 -38 46 -41 56 -3 9 -10 15 -15 12 -5 -4 -9 -2 -9 3 0 5 -12 25 -27
44 -16 20 -35 46 -43 58 -8 12 -32 45 -53 73 -21 29 -48 69 -59 89 -12 21 -25
38 -30 38 -4 0 -8 6 -8 13 0 7 -8 22 -17 33 -29 31 -53 80 -45 89 4 5 2 5 -4
2 -11 -6 -29 19 -26 36 1 4 -3 7 -9 7 -6 0 -8 7 -5 16 3 8 2 13 -2 10 -5 -3
-16 8 -26 25 -9 16 -14 29 -9 29 4 0 2 4 -6 9 -8 5 -16 17 -17 27 -2 9 -7 20
-12 23 -5 3 -13 17 -17 31 -4 14 -14 36 -23 50 -9 14 -17 27 -17 30 -1 3 -11
26 -23 52 -20 43 -42 94 -47 108 -1 3 -6 16 -12 30 -6 14 -19 45 -28 70 -9 25
-21 54 -27 65 -5 12 -10 27 -12 35 -2 8 -6 23 -10 32 -4 9 -9 22 -10 30 -2 7
-6 21 -10 30 -4 9 -8 22 -10 30 -1 7 -5 19 -9 26 -5 6 -6 16 -2 21 3 5 1 12
-5 16 -8 5 -25 55 -35 105 -2 8 -4 16 -5 18 -2 1 -3 5 -5 10 -1 4 -4 14 -7 22
-4 8 -8 24 -11 35 -2 11 -18 72 -35 135 -17 63 -33 126 -36 140 -2 14 -7 32
-10 40 -3 8 -7 26 -10 40 -2 14 -11 54 -20 90 -14 59 -19 84 -32 145 -2 11 -8
43 -14 70 -6 28 -13 65 -16 84 -3 18 -8 43 -11 55 -8 36 -24 119 -29 156 -7
56 -12 85 -14 85 -2 0 -4 13 -14 85 -8 55 -14 95 -22 135 -3 17 -7 44 -9 60
-2 27 -7 54 -21 145 -4 25 -10 72 -20 170 -4 30 -11 58 -16 61 -7 4 -6 9 1 13
7 4 7 15 1 31 -5 13 -9 32 -9 42 -1 31 -9 118 -11 118 -1 0 -4 20 -6 45 -5 61
-11 124 -19 190 -3 30 -8 82 -10 115 -2 33 -5 60 -5 60 -1 0 -3 15 -5 33 -2
19 -6 40 -9 48 -4 10 -2 12 6 8 7 -4 8 -3 4 5 -4 6 -9 35 -11 64 -2 28 -7 83
-11 122 -14 158 -18 235 -11 242 3 2 97 6 208 8 112 2 238 7 279 10 41 3 103
7 138 10 34 2 67 7 72 10 6 3 10 1 10 -6 0 -8 4 -8 13 -2 6 6 19 10 27 10 18
1 122 12 170 18 83 12 126 17 148 18 12 1 22 3 22 7 0 3 12 6 28 7 57 4 102
12 123 23 16 9 20 9 14 0 -5 -9 -3 -9 11 -2 11 5 25 7 32 5 6 -3 12 -1 12 5 0
5 6 9 13 9 28 2 88 12 96 17 4 3 21 8 37 10 48 9 67 14 117 29 26 8 47 13 47
10 0 -3 6 -1 13 5 6 5 28 13 47 17 19 4 41 12 48 17 6 6 12 8 12 4 0 -3 29 5
64 18 35 14 67 22 70 19 3 -4 6 -1 6 6 0 6 6 11 13 10 6 -1 23 2 37 8 14 6 41
17 60 25 19 8 37 15 40 16 3 0 18 5 33 11 16 6 33 11 38 11 5 0 9 4 9 10 0 5
3 9 8 8 4 0 14 2 22 5 50 21 76 30 83 29 4 -1 7 3 7 8 0 6 5 10 11 10 6 0 47
18 90 39 44 22 79 38 79 36 0 -3 8 2 18 10 9 8 21 15 26 14 5 0 12 3 15 8 3 5
27 20 53 33 87 46 213 123 220 134 4 6 8 7 8 2 0 -5 8 1 19 12 10 12 21 19 25
15 3 -3 6 -1 6 5 0 7 7 12 15 12 8 0 15 3 15 8 1 4 25 23 55 42 29 19 51 39
48 44 -3 5 -2 6 4 3 5 -3 21 5 36 19 14 13 31 24 37 24 5 0 10 5 10 10 0 6 7
10 16 10 8 0 13 4 9 9 -3 5 4 12 15 16 11 3 20 11 20 16 0 20 32 7 65 -26z"/>
<path d="M3698 6463 c-24 -3 -39 -10 -42 -21 -3 -10 -8 -104 -10 -209 -4 -176
-3 -191 12 -188 9 2 20 4 24 4 4 1 8 20 10 43 3 39 6 43 35 49 38 7 50 -3 55
-46 2 -24 8 -31 29 -33 26 -3 27 -3 18 44 -5 26 -18 86 -30 133 -11 47 -22 93
-24 101 -6 28 -36 130 -38 128 -1 -1 -19 -3 -39 -5z m34 -255 c-19 -19 -29 1
-26 49 4 87 6 89 21 24 10 -42 12 -66 5 -73z"/>
<path d="M3806 6453 c2 -10 13 -54 24 -99 11 -44 22 -98 26 -120 3 -21 8 -42
10 -45 2 -3 6 -21 9 -40 4 -19 8 -41 10 -49 2 -8 4 -20 4 -26 1 -6 18 -10 38
-9 43 1 40 -8 73 180 12 66 27 144 35 173 l13 52 -33 0 c-33 0 -33 0 -41 -62
-5 -35 -9 -67 -9 -73 -2 -14 -18 -119 -21 -127 -1 -5 -2 -27 -3 -50 0 -23 -3
-39 -5 -37 -3 3 -14 58 -26 124 -39 226 -38 225 -76 225 -25 0 -31 -4 -28 -17z"/>
<path d="M4099 6458 c-1 -7 -2 -40 -4 -73 -1 -33 -6 -117 -9 -188 -5 -99 -4
-128 6 -132 7 -2 43 -6 79 -8 66 -5 67 -4 67 22 0 32 -13 41 -60 41 l-36 0 3
48 c2 26 3 50 4 54 1 4 15 5 33 3 19 -2 36 1 40 8 10 16 10 57 1 56 -5 -1 -23
-1 -40 0 l-33 1 6 53 c6 56 11 70 22 63 4 -2 27 -6 51 -7 44 -3 45 -3 48 29 4
29 2 32 -24 33 -15 0 -56 3 -90 5 -47 4 -63 2 -64 -8z"/>
<path d="M4412 6420 c-21 -10 -42 -26 -46 -36 -15 -37 -40 -211 -40 -268 1
-85 108 -116 161 -47 15 20 66 235 65 272 -2 71 -71 110 -140 79z m67 -64 c9
-11 7 -40 -9 -128 -23 -121 -38 -150 -68 -132 -23 15 -20 58 14 229 9 44 40
59 63 31z"/>
<path d="M3380 6410 c-12 -7 -8 -36 30 -197 24 -103 46 -191 49 -195 3 -4 33
-1 66 6 82 17 80 17 77 29 -2 7 -4 20 -5 29 -1 10 -4 18 -7 18 -3 -1 -24 -5
-47 -9 -24 -5 -43 -7 -43 -5 0 5 -60 284 -67 312 -5 23 -28 28 -53 12z"/>
<path d="M4625 6388 c-13 -38 -96 -380 -93 -384 2 -2 15 -5 27 -6 21 -3 26 6
56 112 37 127 38 125 37 -52 l-1 -87 30 -6 c17 -4 32 -5 33 -3 9 11 129 378
126 381 -3 2 -17 7 -32 11 -26 6 -27 4 -57 -92 -17 -53 -31 -103 -31 -111 0
-8 -3 -12 -6 -8 -4 3 -6 58 -5 122 2 87 -1 116 -11 119 -45 14 -69 15 -73 4z"/>
<path d="M3204 6369 c-26 -9 -64 -56 -64 -78 0 -9 19 -72 41 -140 46 -138 70
-171 124 -171 66 0 104 60 84 133 -9 34 -11 35 -38 24 -26 -10 -28 -13 -20
-41 7 -23 5 -34 -6 -46 -27 -27 -48 1 -83 111 -38 121 -38 143 0 147 22 3 28
-2 39 -31 10 -28 16 -33 36 -29 31 6 34 13 22 56 -15 56 -79 86 -135 65z"/>
<path d="M3029 6317 l-26 -12 43 -107 c23 -60 40 -108 38 -108 -2 0 -42 51
-140 178 -8 12 -16 11 -48 -2 -44 -18 -45 -14 24 -160 26 -56 60 -129 75 -163
29 -65 39 -72 67 -50 15 11 15 16 -6 57 -33 69 -67 153 -62 157 2 2 37 -38 78
-90 68 -86 76 -93 98 -85 13 5 26 11 29 13 5 6 -132 385 -139 384 -3 0 -17 -6
-31 -12z"/>
<path d="M4940 6277 c-27 -13 -54 -62 -96 -172 -49 -129 -41 -184 32 -204 42
-12 88 15 111 65 15 31 15 36 3 44 -27 17 -45 10 -57 -21 -9 -24 -17 -30 -35
-27 -35 5 -33 31 12 141 50 122 59 134 90 117 22 -12 23 -30 6 -71 -5 -12 1
-19 24 -27 28 -10 32 -9 39 11 20 54 20 73 1 105 -30 48 -81 64 -130 39z"/>
<path d="M5139 6228 c-3 -10 -7 -41 -13 -88 -6 -55 -11 -89 -22 -143 -3 -15
-23 -58 -44 -96 l-37 -69 25 -12 c29 -13 26 -15 74 73 33 61 102 134 198 209
l33 26 -33 17 -33 17 -54 -54 -55 -53 5 35 c20 123 20 115 -8 128 -26 12 -34
14 -36 10z"/>
<path d="M2712 6183 c-39 -19 -63 -66 -52 -103 9 -30 116 -217 137 -238 57
-58 156 -20 155 60 0 35 -109 255 -134 272 -35 23 -72 26 -106 9z m125 -158
c55 -105 64 -139 37 -149 -23 -9 -38 6 -78 77 -75 135 -79 146 -65 163 27 33
51 12 106 -91z"/>
<path d="M5308 5963 c-47 -76 -96 -154 -107 -174 l-22 -37 49 -31 c28 -17 62
-31 80 -31 56 0 129 84 119 137 -4 19 2 26 27 37 58 24 88 94 62 145 -14 27
-71 72 -110 87 -8 3 -46 -49 -98 -133z m140 35 c19 -19 14 -47 -13 -74 -21
-21 -28 -23 -47 -13 -13 6 -24 13 -26 14 -7 6 51 85 62 85 7 0 17 -5 24 -12z
m-93 -148 c17 -19 17 -23 3 -54 -18 -37 -45 -49 -76 -32 -21 11 -21 11 10 59
17 26 34 47 38 47 4 0 15 -9 25 -20z"/>
<path d="M2505 6066 c-39 -17 -55 -37 -61 -78 -5 -29 3 -46 69 -138 92 -129
106 -142 156 -144 76 -2 108 63 70 140 -22 43 -22 43 -51 28 l-29 -15 21 -28
c11 -16 20 -31 20 -34 0 -14 -32 -36 -45 -30 -24 8 -147 199 -143 219 3 19 58
34 58 17 0 -4 7 -16 14 -26 12 -16 18 -17 38 -6 13 6 25 13 26 15 2 1 -4 16
-14 33 -28 48 -82 67 -129 47z"/>
<path d="M5603 5928 c-21 -24 -118 -150 -190 -246 l-41 -56 61 -48 c60 -46 62
-47 79 -28 24 26 23 31 -17 60 -19 14 -35 28 -35 33 0 4 15 23 33 43 l32 36
28 -23 29 -22 21 22 22 22 -31 28 -32 29 38 43 37 44 45 -37 c44 -36 45 -36
61 -17 10 10 17 23 17 28 0 9 -122 111 -132 111 -3 0 -14 -10 -25 -22z"/>
<path d="M2213 5861 l-22 -18 131 -149 c72 -82 135 -150 139 -152 4 -2 33 15
63 38 47 35 54 45 46 60 -17 32 -30 33 -67 4 -34 -26 -37 -26 -49 -9 -7 9 -26
31 -41 49 -15 17 -59 68 -96 114 -38 45 -72 82 -75 82 -4 -1 -17 -9 -29 -19z"/>
<path d="M4048 5814 c-2 -1 -64 -3 -138 -5 -74 -1 -143 -6 -152 -11 -12 -6
-18 -5 -18 3 0 8 -4 9 -13 0 -10 -8 -17 -7 -27 2 -10 10 -11 9 -5 -1 5 -10 1
-13 -11 -12 -11 1 -21 1 -24 0 -3 -1 -16 -4 -30 -5 -14 -1 -32 -5 -40 -8 -8
-4 -29 -8 -45 -10 -17 -2 -36 -6 -42 -10 -6 -4 -24 -8 -40 -9 -15 -1 -34 -6
-40 -11 -7 -5 -29 -10 -49 -11 -20 -2 -40 -9 -45 -17 -5 -8 -9 -10 -9 -5 0 5
-6 3 -14 -3 -7 -6 -25 -12 -40 -13 -14 -1 -26 -7 -26 -12 0 -5 -3 -7 -6 -3 -4
3 -13 -1 -21 -9 -8 -8 -18 -12 -23 -9 -5 3 -11 1 -15 -5 -4 -6 -11 -8 -16 -5
-5 4 -9 1 -9 -5 0 -7 -7 -10 -15 -6 -8 3 -15 1 -15 -4 0 -6 -7 -10 -15 -10 -8
0 -15 -5 -15 -11 0 -6 -6 -9 -12 -7 -7 3 -21 -4 -32 -14 -11 -10 -26 -18 -33
-18 -8 0 -24 -9 -36 -20 -12 -11 -27 -18 -35 -15 -7 2 -11 1 -8 -4 3 -5 -1
-12 -10 -15 -10 -4 -13 -2 -9 7 4 6 -2 3 -12 -9 -10 -11 -47 -41 -83 -65 -36
-25 -77 -55 -92 -68 -14 -13 -29 -23 -32 -22 -3 0 -18 -12 -33 -27 -16 -15
-65 -62 -110 -105 -45 -42 -79 -77 -75 -77 3 0 -13 -18 -36 -40 -22 -22 -38
-40 -34 -40 4 -1 -2 -9 -13 -18 -11 -10 -26 -27 -33 -37 -40 -63 -49 -74 -55
-70 -4 3 -5 2 -3 -1 3 -3 -12 -31 -33 -63 -21 -31 -46 -71 -55 -88 -9 -18 -21
-33 -26 -33 -6 0 -9 -3 -8 -7 3 -14 -14 -63 -22 -63 -4 0 -10 -14 -14 -31 -4
-21 -10 -28 -18 -23 -7 4 -10 4 -6 0 10 -12 -13 -67 -25 -59 -5 3 -7 1 -4 -4
9 -14 -12 -75 -23 -68 -4 3 -6 -4 -3 -15 3 -12 0 -20 -6 -20 -7 0 -9 -5 -6
-10 7 -11 -15 -80 -25 -80 -4 0 -6 -10 -5 -22 1 -12 -5 -40 -13 -62 -15 -44
-23 -80 -23 -109 0 -9 -3 -16 -7 -13 -4 2 -7 -16 -7 -41 0 -24 -2 -46 -6 -48
-3 -3 -5 -18 -4 -35 1 -16 -2 -30 -6 -30 -4 0 -6 -8 -4 -17 1 -10 -3 -24 -9
-32 -6 -9 -7 -12 -1 -9 15 9 6 -122 -9 -141 -6 -9 -7 -12 0 -9 7 5 11 -21 12
-75 2 -115 8 -183 17 -198 5 -7 4 -10 -2 -6 -5 3 -10 0 -10 -8 0 -8 4 -12 8
-9 4 2 7 -4 7 -13 0 -10 3 -38 7 -63 4 -25 8 -55 8 -67 1 -13 5 -23 11 -23 5
0 7 -2 4 -6 -3 -3 0 -26 8 -51 8 -25 11 -49 8 -54 -3 -5 0 -9 6 -9 6 0 9 -4 5
-9 -3 -5 -1 -12 4 -15 5 -4 8 -17 6 -31 -1 -14 0 -23 3 -20 6 6 32 -62 32 -87
0 -9 4 -18 10 -20 5 -1 11 -14 12 -28 2 -14 6 -27 9 -30 3 -3 26 -45 50 -95
162 -336 438 -641 762 -843 68 -43 279 -152 294 -152 4 0 20 -6 34 -14 47 -24
271 -87 374 -105 167 -28 380 -39 510 -26 140 14 172 18 190 21 11 2 31 6 45
9 58 11 77 15 152 35 44 11 85 22 91 23 7 1 14 4 17 7 3 3 30 14 60 24 80 27
273 120 360 173 228 141 447 346 598 562 70 99 126 195 179 304 24 48 43 90
43 92 0 2 4 14 9 27 5 13 9 28 10 33 1 6 9 20 17 33 8 12 12 22 9 22 -2 0 0
12 6 28 12 30 38 124 45 162 3 14 9 41 14 60 5 19 12 57 16 85 3 27 14 55 23
62 15 12 15 13 0 7 -13 -4 -15 0 -11 21 3 20 7 23 13 13 13 -19 11 0 -2 24 -8
15 -8 23 1 32 8 8 10 6 5 -9 -6 -20 -6 -20 6 -1 9 15 9 21 1 24 -7 2 -12 8
-12 13 0 6 4 8 9 5 11 -7 9 13 -2 32 -5 7 -3 12 3 12 6 0 8 5 3 13 -4 6 -9 21
-10 32 -3 16 -1 17 7 5 8 -12 10 -11 10 8 0 14 -4 21 -11 17 -6 -4 -5 3 3 15
11 18 11 23 0 27 -10 4 -10 8 -1 19 9 11 8 14 -2 14 -11 0 -11 2 1 10 13 9 13
11 0 20 -13 9 -13 10 0 10 12 0 13 2 1 9 -11 7 -11 9 0 14 10 4 10 6 2 6 -7 1
-13 6 -13 12 0 5 3 8 8 6 4 -3 8 6 8 19 1 13 -2 24 -8 24 -5 0 -7 -4 -3 -9 3
-5 1 -12 -4 -15 -5 -3 -7 9 -6 27 2 17 0 37 -3 42 -10 15 -11 36 -3 30 4 -2 8
2 8 10 0 8 -4 12 -8 10 -4 -3 -10 19 -14 47 -9 69 -10 72 -30 148 -9 36 -18
70 -19 75 -1 6 -4 15 -7 20 -3 6 -5 17 -4 25 0 8 -3 18 -8 21 -5 4 -10 18 -10
33 -1 14 -6 26 -11 26 -4 0 -6 7 -2 15 3 8 1 15 -4 15 -5 0 -13 12 -16 28 -4
15 -18 48 -31 75 -13 26 -20 47 -16 47 5 0 3 4 -3 8 -16 10 -54 88 -47 96 4 3
2 6 -3 6 -5 0 -18 17 -29 38 -11 20 -30 52 -43 70 -14 17 -22 32 -18 32 3 0
-1 8 -9 18 -25 28 -95 121 -95 126 0 23 -266 286 -366 361 -21 16 -40 33 -42
37 -2 4 -9 8 -15 8 -7 0 -23 10 -37 23 -14 13 -40 30 -57 38 -18 7 -33 17 -33
21 0 5 -7 8 -15 8 -8 0 -15 4 -15 8 0 4 -16 14 -35 21 -19 7 -35 17 -35 22 0
5 -6 8 -12 6 -7 -1 -12 4 -10 11 1 8 -2 11 -8 7 -9 -5 -78 21 -90 34 -3 4 -12
7 -20 9 -8 2 -33 12 -56 23 -24 10 -50 19 -58 19 -8 0 -18 5 -21 10 -4 6 -11
8 -16 5 -5 -4 -9 -1 -9 5 0 6 -4 8 -10 5 -5 -3 -16 -3 -22 2 -7 4 -24 9 -38
11 -14 2 -26 7 -28 12 -2 5 -9 7 -17 4 -7 -3 -16 -1 -19 5 -4 6 -13 8 -21 4
-8 -3 -15 0 -15 7 0 6 -3 9 -8 6 -4 -2 -27 0 -52 5 -25 5 -57 11 -71 12 -14 1
-34 9 -44 17 -11 8 -16 10 -12 3 5 -8 -3 -11 -28 -10 -19 1 -35 4 -35 7 0 3
-17 5 -37 5 -21 0 -57 2 -80 6 -24 3 -44 5 -45 3z"/>
<path d="M5772 5782 c-24 -27 -143 -159 -214 -236 -37 -41 -37 -41 -18 -61 20
-19 20 -19 75 35 50 49 56 53 71 39 14 -15 12 -22 -24 -79 -34 -53 -38 -66
-29 -82 7 -10 15 -18 19 -18 4 0 29 34 55 75 34 53 54 75 69 75 33 0 104 58
129 106 18 36 6 67 -53 127 -25 26 -49 47 -52 46 -3 0 -16 -12 -28 -27z m68
-102 c7 -13 1 -26 -27 -54 -39 -39 -68 -44 -86 -14 -9 13 -2 25 33 62 45 47
57 48 80 6z"/>
<path d="M2063 5727 l-31 -32 91 -121 c51 -67 109 -141 129 -165 34 -41 37
-43 53 -27 16 15 16 18 -10 53 l-28 36 26 26 26 27 38 -27 c34 -24 38 -25 55
-11 16 15 12 20 -60 78 -79 64 -229 177 -248 189 -6 3 -25 -8 -41 -26z m155
-135 c36 -28 41 -36 30 -49 -11 -13 -15 -11 -36 13 -75 92 -73 100 6 36z"/>
<path d="M1927 5582 c-24 -26 -22 -33 31 -75 26 -21 65 -53 87 -73 l40 -35
-35 14 c-19 8 -70 29 -114 48 l-79 33 -23 -30 c-13 -16 -24 -33 -24 -39 1 -5
73 -63 162 -128 l161 -119 21 22 c14 13 17 23 10 28 -19 12 -184 145 -184 148
0 3 127 -46 191 -74 l47 -20 21 22 21 23 -42 39 c-69 64 -266 234 -270 234 -3
0 -12 -8 -21 -18z"/>
<path d="M5984 5562 c-17 -15 -86 -74 -153 -132 -66 -58 -121 -108 -121 -112
0 -3 19 -27 43 -52 40 -43 55 -50 103 -47 25 1 229 153 245 183 18 33 4 84
-38 138 -21 27 -40 49 -43 49 -3 1 -19 -12 -36 -27z m58 -128 c-12 -22 -186
-154 -203 -154 -9 0 -24 9 -33 19 -16 18 -16 20 2 32 10 8 39 30 63 51 24 20
66 55 93 77 l50 40 17 -26 c10 -15 15 -32 11 -39z"/>
<path d="M6015 5264 c-88 -63 -161 -119 -163 -123 -2 -5 16 -38 39 -74 41 -64
42 -65 65 -50 29 19 29 17 -1 68 l-24 43 39 26 c47 31 57 32 65 7 11 -35 30
-43 55 -23 l23 19 -22 31 -22 31 48 35 47 34 23 -31 c13 -17 25 -39 29 -49 6
-22 23 -23 49 -4 18 13 17 17 -30 95 -27 44 -51 81 -54 80 -4 0 -78 -52 -166
-115z"/>
<path d="M1754 5325 c-51 -26 -71 -81 -50 -142 7 -22 222 -159 256 -164 37 -4
59 3 84 27 37 37 36 93 -1 133 -37 38 -213 156 -238 159 -11 1 -34 -5 -51 -13z
m137 -111 c110 -74 123 -87 114 -113 -3 -11 -14 -21 -23 -21 -26 1 -217 125
-220 144 -4 20 15 46 33 46 7 0 50 -25 96 -56z"/>
<path d="M6128 5072 c-173 -101 -177 -104 -166 -128 6 -13 15 -24 20 -24 5 0
40 18 78 39 l69 40 17 -39 c17 -38 18 -39 45 -24 26 13 27 17 17 44 -5 17 -15
33 -20 36 -8 5 76 63 92 64 3 0 18 -25 33 -55 27 -51 29 -53 53 -43 13 6 24
17 24 25 0 14 -38 93 -68 141 l-17 28 -177 -104z"/>
<path d="M1610 5110 c-12 -28 -7 -50 9 -50 5 0 80 -38 167 -85 88 -47 164 -85
170 -85 6 0 16 10 21 23 12 26 15 23 -77 74 -30 17 -98 55 -151 85 -128 73
-125 72 -139 38z"/>
<path d="M1554 4989 c-30 -59 -65 -162 -57 -169 4 -4 18 -11 29 -14 18 -5 24
-1 32 24 6 16 13 30 16 30 3 0 72 -29 155 -65 82 -36 153 -65 159 -65 9 0 27
49 20 54 -2 2 -21 11 -43 21 -127 58 -265 125 -265 129 0 3 5 17 12 32 11 23
10 28 -7 40 -27 20 -32 18 -51 -17z"/>
<path d="M6330 4917 c-36 -18 -115 -56 -176 -84 l-112 -52 31 -81 c27 -71 33
-79 51 -74 36 11 38 19 18 72 l-19 50 49 21 49 20 15 -39 c15 -37 17 -38 45
-28 16 5 29 11 29 13 0 1 -7 19 -16 40 -8 20 -14 39 -12 40 6 7 101 46 103 43
1 -2 12 -29 24 -60 22 -56 23 -56 52 -46 17 6 28 15 26 22 -3 6 -19 48 -37 94
-17 45 -37 82 -43 81 -7 0 -41 -15 -77 -32z"/>
<path d="M1448 4705 l-16 -46 42 -27 c55 -35 326 -175 331 -171 2 2 5 15 7 28
2 20 -4 29 -34 45 -21 11 -38 23 -38 28 0 19 30 79 37 75 5 -3 24 -8 44 -11
33 -5 37 -3 41 19 5 22 0 26 -31 35 -38 10 -259 54 -327 65 l-41 6 -15 -46z
m193 -55 c49 -9 56 -14 52 -30 -7 -26 -14 -25 -78 11 -53 30 -69 43 -42 34 6
-2 37 -9 68 -15z"/>
<path d="M6455 4700 c-11 -5 -83 -31 -160 -59 -77 -27 -148 -53 -158 -57 -14
-5 -17 -13 -12 -33 4 -14 8 -28 10 -30 3 -2 54 13 114 33 60 20 112 36 116 36
6 0 -135 -108 -184 -140 -19 -13 -22 -21 -16 -51 l7 -36 199 50 200 50 -7 31
c-3 17 -8 34 -10 37 -2 4 -49 -7 -105 -22 -57 -16 -107 -29 -113 -29 -6 0 14
16 44 36 107 71 150 108 146 124 -2 8 -7 27 -10 43 -7 28 -24 33 -61 17z"/>
<path d="M1387 4478 c-2 -18 -3 -35 -1 -37 2 -2 54 -16 116 -32 62 -15 104
-28 93 -29 -11 -1 -27 -3 -36 -5 -8 -1 -42 -6 -75 -9 -64 -8 -117 -16 -120
-19 -1 -1 -5 -23 -9 -49 -8 -56 -31 -47 215 -87 184 -31 190 -30 190 16 0 23
1 22 -170 57 -36 8 -58 16 -50 19 15 6 162 26 212 29 22 2 28 8 33 36 3 19 4
36 2 38 -6 6 -363 104 -380 104 -9 0 -17 -13 -20 -32z"/>
<path d="M6373 4355 c-122 -29 -138 -36 -158 -75 -19 -36 -19 -71 -2 -113 17
-40 52 -59 103 -55 34 3 39 6 40 28 1 43 -6 50 -42 44 -30 -5 -35 -2 -44 20
-15 40 -3 53 58 65 31 5 68 13 82 16 14 2 46 8 72 11 45 6 47 5 54 -20 9 -38
-1 -56 -36 -63 -29 -5 -31 -9 -28 -42 3 -35 4 -36 42 -33 45 4 64 20 81 70 15
42 10 87 -13 122 -36 58 -57 60 -209 25z"/>
<path d="M1647 4083 c-1 -1 -33 -4 -72 -8 -190 -17 -245 -26 -246 -38 0 -7 -3
-31 -5 -54 -4 -45 5 -56 57 -67 13 -3 94 -23 179 -44 85 -21 158 -37 163 -35
4 2 7 17 7 32 0 26 -5 30 -45 40 l-46 11 4 45 c2 24 5 46 8 49 2 2 22 6 44 10
22 3 41 5 43 6 1 0 2 13 2 29 0 27 -2 28 -46 27 -25 0 -46 -2 -47 -3z m-67
-109 c0 -25 -2 -26 -32 -20 -18 4 -48 10 -65 13 -46 8 -41 21 10 26 91 8 87 9
87 -19z"/>
<path d="M6599 4086 c-2 -2 -40 -7 -84 -11 -44 -3 -87 -8 -95 -10 -8 -2 -46
-7 -85 -10 -121 -10 -110 0 -110 -101 -1 -49 1 -95 3 -101 2 -7 17 -13 34 -13
29 0 29 1 28 48 -3 96 -6 92 50 92 33 0 50 -4 51 -12 1 -7 2 -29 2 -48 2 -27
6 -35 20 -34 9 1 24 2 32 3 13 1 15 11 11 50 l-5 49 50 4 c27 1 54 2 59 0 6
-2 10 -36 10 -76 l0 -72 33 4 33 4 -4 106 c-2 67 -8 112 -16 120 -7 7 -14 11
-17 8z"/>
<path d="M1915 3780 c3 -5 8 -10 11 -10 2 0 4 5 4 10 0 6 -5 10 -11 10 -5 0
-7 -4 -4 -10z"/>
</g>
</svg>
